<svg viewBox="0 0 369 499" fill="none" xmlns="http://www.w3.org/2000/svg">
<path id="cp" d="M96.2833 425.088L96.2664 425.076L96.2487 425.066C57.0593 402.601 34.3737 379.03 20.9858 357.734C7.59855 336.439 3.48893 317.388 1.4946 303.927C0.747341 298.883 1.3556 290.98 2.74463 281.581C4.13111 272.199 6.28578 261.383 8.60009 250.542C9.78823 244.976 11.0194 239.4 12.2099 234.008C15.6505 218.425 18.7521 204.377 19.4977 196.547C20.0037 191.235 19.3707 183.372 18.1518 174.339C16.9313 165.295 15.1168 155.035 13.2416 144.909C12.663 141.785 12.0788 138.673 11.5043 135.614C10.2159 128.754 8.97681 122.156 7.9615 116.259C6.49147 107.72 5.5 100.7 5.5 96.5C5.5 88.1036 10.2178 64.2038 25.5341 42.4125C40.8282 20.6526 66.6824 1.00189 108.994 1C119.191 1.25011 140.133 5.28323 161.089 9.49785C163.646 10.0121 166.203 10.5291 168.741 11.0421C186.938 14.7207 204.114 18.1928 212.929 18.9956C277.113 31.4859 317.625 51.9543 341.026 74.7333C364.416 97.5014 370.724 122.585 366.509 144.405C362.817 163.519 356.098 179.602 349.711 194.89C348.768 197.149 347.831 199.391 346.913 201.622C339.785 218.941 333.749 235.647 334 255.007C334.232 272.849 340.445 288.129 347.034 304.333C347.596 305.714 348.16 307.102 348.724 308.5C355.905 326.297 362.998 345.594 363 370.988C359.109 453.684 296.265 498.491 236.519 498.5C202.341 495.886 185.307 489.904 167.837 478.431C160.059 473.323 152.193 467.127 142.682 459.634C141.484 458.689 140.259 457.724 139.004 456.738C127.806 447.933 114.296 437.472 96.2833 425.088Z" stroke="#FF0000"/>
</svg>
