<svg width="473" height="362" viewBox="0 0 473 362" fill="none" xmlns="http://www.w3.org/2000/svg">
    <g filter="url(#filter0_b_14_140)">
        <path
            d="M150.5 362C121.833 362 96.1667 355 73.5 341C50.8333 326.667 33 306 20 279C7 252 0.5 219.333 0.5 181C0.5 142.667 7 110 20 83C33 56 50.8333 35.5 73.5 21.5C96.1667 7.16666 121.833 -6.19888e-06 150.5 -6.19888e-06C179.5 -6.19888e-06 205.167 7.16666 227.5 21.5C250.167 35.5 268 56 281 83C294 110 300.5 142.667 300.5 181C300.5 219.333 294 252 281 279C268 306 250.167 326.667 227.5 341C205.167 355 179.5 362 150.5 362ZM150.5 293.5C164.167 293.5 176 289.667 186 282C196.333 274.333 204.333 262.167 210 245.5C216 228.833 219 207.333 219 181C219 154.667 216 133.167 210 116.5C204.333 99.8333 196.333 87.6666 186 80C176 72.3333 164.167 68.5 150.5 68.5C137.167 68.5 125.333 72.3333 115 80C105 87.6666 97 99.8333 91 116.5C85.3333 133.167 82.5 154.667 82.5 181C82.5 207.333 85.3333 228.833 91 245.5C97 262.167 105 274.333 115 282C125.333 289.667 137.167 293.5 150.5 293.5ZM391.902 356V36L426.902 71H321.902V5.99998H472.902V356H391.902Z"
            fill="#1D1D1D" fill-opacity="0.12" />
    </g>
    <defs>
        <filter id="filter0_b_14_140" x="-49.5" y="-50" width="572.402" height="462" filterUnits="userSpaceOnUse"
            color-interpolation-filters="sRGB">
            <feFlood flood-opacity="0" result="BackgroundImageFix" />
            <feGaussianBlur in="BackgroundImageFix" stdDeviation="25" />
            <feComposite in2="SourceAlpha" operator="in" result="effect1_backgroundBlur_14_140" />
            <feBlend mode="normal" in="SourceGraphic" in2="effect1_backgroundBlur_14_140" result="shape" />
        </filter>
    </defs>
</svg>